<?xml version="1.0" encoding="utf-8"?>
<!-- Generator: Adobe Illustrator 23.0.6, SVG Export Plug-In . SVG Version: 6.00 Build 0)  -->
<svg version="1.1" id="Layer_1" xmlns="http://www.w3.org/2000/svg" xmlns:xlink="http://www.w3.org/1999/xlink" x="0px" y="0px"
	 viewBox="0 0 400 400" style="enable-background:new 0 0 400 400;" xml:space="preserve">
<style type="text/css">
	.st0{fill:#FFFFFF;}
</style>
<g>
	<path class="st0" d="M266.5,185.7c0.6,0.2,1.1,0.4,1.6,0.5c3.9,1.4,6.8,4,8.2,7.9c0.8,2.2,0.9,4.5,0.7,6.9
		c-0.3,3.3-1.4,6.3-3.4,8.9c-2.7,3.5-6.3,5.5-10.6,6.4c-1.8,0.4-3.6,0.5-5.4,0.5c-6.1,0.1-12.2,0-18.2,0c-1.7,0-3-0.6-3.7-2.2
		c-0.3-0.6-0.4-1.2-0.4-1.9c0-16.5,0-33,0-49.5c0-2.4,1.6-4,4-4c6,0,11.9,0,17.9,0c3.9,0,7.6,1.1,10.7,3.5c3.4,2.6,5.3,6.1,5.7,10.4
		c0.5,5.5-2.1,9.4-6.6,12.1C266.8,185.4,266.7,185.5,266.5,185.7z M243,209.7c0.3,0,0.5,0,0.8,0c4.6,0,9.2,0,13.9,0
		c1.3,0,2.7-0.1,4-0.4c2-0.3,3.8-1.2,5.2-2.6c2.6-2.6,3.2-5.8,2.6-9.2c-0.3-1.8-1.1-3.4-2.5-4.6c-2.2-2-4.9-2.8-7.8-2.8
		c-5.2-0.1-10.4,0-15.6,0c-0.2,0-0.4,0-0.6,0C243,196.6,243,203.1,243,209.7z M243,182.8c0.2,0,0.4,0,0.6,0c4.3,0,8.7,0,13,0
		c1.3,0,2.6-0.2,3.8-0.5c2.2-0.6,4-1.8,5.1-4c0.7-1.4,0.9-3,0.8-4.6c-0.2-2.6-1.3-4.7-3.7-6c-1.9-1.1-3.9-1.4-6-1.4
		c-4.3,0-8.6,0-12.8,0c-0.2,0-0.4,0-0.6,0C243,171.9,243,177.3,243,182.8z"/>
	<path class="st0" d="M92.5,191.3c0,6.1,0,12.2,0,18.3c0.3,0,0.5,0,0.8,0c9.5,0,19,0,28.5,0c1.5,0,2.8,0.5,3.5,1.9
		c1.2,2.2-0.2,4.8-2.6,5.1c-0.4,0.1-0.7,0.1-1.1,0.1c-10.9,0-21.8,0-32.6,0c-1.7,0-3-0.6-3.8-2.2c-0.3-0.6-0.4-1.4-0.4-2
		c0-16.4,0-32.8,0-49.1c0-2.2,1.1-3.7,3-4.1c0.2-0.1,0.4-0.1,0.7-0.1c11.2,0,22.4,0,33.6,0c2.6,0,4.2,2.4,3.4,4.8
		c-0.4,1.3-1.7,2.2-3.1,2.3c-0.3,0-0.6,0-1,0c-9.3,0-18.7,0-28,0c-0.3,0-0.5,0-0.8,0c0,5.9,0,11.8,0,17.8c0.3,0,0.5,0,0.8,0
		c6.6,0,13.2,0,19.9,0c1.1,0,2.1,0.2,3,1c1.1,1,1.4,2.1,1,3.5c-0.4,1.4-1.4,2.2-2.8,2.5c-0.4,0.1-0.9,0.1-1.4,0.1
		c-6.6,0-13.2,0-19.7,0C93.1,191.3,92.8,191.3,92.5,191.3z"/>
	<path class="st0" d="M296.1,166.4c0,6,0,11.9,0,17.8c0.3,0,0.5,0,0.8,0c6.6,0,13.3,0,19.9,0c1.2,0,2.2,0.2,3.1,1.1
		c1,1,1.3,2.2,0.9,3.5c-0.4,1.4-1.4,2.1-2.7,2.4c-0.4,0.1-0.9,0.1-1.4,0.1c-6.6,0-13.2,0-19.8,0c-0.2,0-0.5,0-0.8,0
		c0,6.1,0,12.2,0,18.3c0.2,0,0.5,0,0.7,0c9.5,0,19,0,28.4,0c1.3,0,2.4,0.3,3.2,1.3c0.9,1.1,1,2.4,0.5,3.6c-0.5,1.2-1.4,1.9-2.6,2.1
		c-0.4,0.1-0.7,0.1-1.1,0.1c-10.9,0-21.9,0-32.8,0c-1.7,0-3-0.7-3.7-2.2c-0.3-0.6-0.4-1.2-0.4-1.9c0-16.5,0-33,0-49.4
		c0-2.5,1.6-4,4.1-4c11,0,22,0,32.9,0c1.8,0,3.2,0.9,3.7,2.5c0.7,2.3-0.7,4.5-3.1,4.6c-0.3,0-0.7,0-1,0c-9.3,0-18.7,0-28,0
		C296.7,166.4,296.4,166.4,296.1,166.4z"/>
	<path class="st0" d="M63.6,193.6c0.1,0.2,0.3,0.4,0.4,0.6c3.8,5.5,7.7,11.1,11.5,16.6c1.2,1.7,0.9,3.6-0.1,4.8
		c-1.6,1.9-4.4,1.8-5.8-0.2c-5-7.2-10-14.5-15.1-21.7c-1.3-1.9-0.8-3.8,0.3-5c0.8-0.8,1.8-1,2.9-1.1c4.3-0.5,7.9-3.6,8.9-7.8
		c1.4-5.8-2.1-11.4-7.9-12.7c-0.8-0.2-1.6-0.3-2.4-0.3c-3.4,0-6.7,0-10.1,0c-0.1,0-0.2,0-0.5,0c0,0.3,0,0.5,0,0.8
		c0,15.1,0,30.2,0,45.4c0,1.3-0.4,2.4-1.4,3.2c-1.1,0.9-2.4,1.1-3.7,0.5s-2.2-1.6-2.3-3.1c0-0.3,0-0.5,0-0.8c0-16.4,0-32.9,0-49.3
		c0-1.7,0.6-2.9,2.1-3.7c0.5-0.3,1-0.4,1.5-0.4c5,0,9.9-0.1,14.9,0c8.8,0.1,15.8,6.7,17.2,14.5c1.1,6.5-0.7,12.1-5.6,16.6
		c-1.3,1.2-2.8,2.2-4.5,3C63.8,193.4,63.7,193.5,63.6,193.6z"/>
	<path class="st0" d="M202.3,171.7c-1,2.5-2,4.9-3,7.4c-4.8,11.7-9.6,23.4-14.3,35c-1,2.4-3.4,3.4-5.6,2.2c-1.7-0.9-2.4-3-1.5-5.1
		c1.4-3.3,2.8-6.6,4.1-9.9c5.5-13.1,10.9-26.1,16.4-39.2c0.3-0.7,0.8-1.5,1.3-2c1.4-1.4,4.7-1.4,5.9,1.3c1.3,3.1,2.6,6.2,3.9,9.3
		c5.6,13.4,11.2,26.8,16.8,40.2c0.5,1.2,0.8,2.4,0.2,3.6c-0.7,1.5-1.9,2.2-3.6,2.2c-1.6,0-2.8-0.8-3.5-2.3c-1.3-3.3-2.6-6.6-4-9.8
		c-4.3-10.8-8.7-21.6-13-32.4C202.5,172.1,202.4,171.9,202.3,171.7z"/>
	<path class="st0" d="M143.8,209.1c0.3,0,0.6,0,0.9,0c8.5,0,17,0,25.6,0c2,0,3.4,1,3.9,2.8c0.7,2.5-0.9,4.8-3.5,4.9
		c-0.2,0-0.4,0-0.5,0c-9.9,0-19.8,0-29.8,0c-1.7,0-3-0.6-3.7-2.1c-0.3-0.6-0.4-1.3-0.4-1.9c0-5.3,0-10.7,0-16c0-11.1,0-22.3,0-33.4
		c0-2,1.1-3.5,2.9-4c2.3-0.6,4.6,1.1,4.7,3.5c0,0.3,0,0.7,0,1c0,14.8,0,29.5,0,44.3C143.8,208.4,143.8,208.7,143.8,209.1z"/>
	<path class="st0" d="M347.5,209.1c0.3,0,0.6,0,0.8,0c8.5,0,17,0,25.6,0c2.1,0,3.7,1.2,4,3.1c0.4,2.4-1.1,4.4-3.6,4.6
		c-0.2,0-0.3,0-0.5,0c-10,0-19.9,0-29.9,0c-1.6,0-2.9-0.6-3.7-2.1c-0.2-0.4-0.3-0.9-0.4-1.3c0-0.3,0-0.6,0-0.8c0-16.3,0-32.7,0-49
		c0-1.7,0.6-3,2.1-3.9c2.3-1.3,5.4,0.4,5.5,3.1c0,0.3,0,0.6,0,0.9c0,14.8,0,29.7,0,44.5C347.5,208.4,347.5,208.7,347.5,209.1z"/>
</g>
</svg>
