<?xml version="1.0" encoding="utf-8"?>
<!-- Generator: Adobe Illustrator 23.0.6, SVG Export Plug-In . SVG Version: 6.00 Build 0)  -->
<svg version="1.1" id="Layer_1" xmlns="http://www.w3.org/2000/svg" xmlns:xlink="http://www.w3.org/1999/xlink" x="0px" y="0px"
	 viewBox="0 0 400 400" style="enable-background:new 0 0 400 400;" xml:space="preserve">
<g>
	<path d="M256.85,205.71c0.59,0.19,1.12,0.35,1.64,0.54c3.92,1.41,6.75,3.96,8.18,7.94c0.8,2.23,0.9,4.54,0.72,6.87
		c-0.26,3.28-1.35,6.26-3.41,8.87c-2.73,3.47-6.32,5.54-10.6,6.38c-1.77,0.35-3.61,0.47-5.41,0.49c-6.08,0.06-12.16,0.02-18.24,0.02
		c-1.66,0-2.98-0.63-3.7-2.16c-0.26-0.56-0.39-1.23-0.39-1.85c-0.02-16.5-0.02-33-0.01-49.5c0-2.44,1.6-4,4.04-4
		c5.96,0,11.92-0.03,17.88,0.01c3.94,0.03,7.6,1.08,10.73,3.54c3.37,2.64,5.3,6.11,5.67,10.42c0.47,5.53-2.12,9.36-6.65,12.14
		C257.17,205.5,257.05,205.59,256.85,205.71z M233.36,229.71c0.3,0,0.54,0,0.78,0c4.62,0,9.24,0.03,13.86-0.02
		c1.33-0.01,2.68-0.14,3.99-0.37c1.99-0.34,3.81-1.16,5.24-2.59c2.57-2.57,3.2-5.75,2.64-9.23c-0.29-1.81-1.11-3.37-2.48-4.61
		c-2.22-2.01-4.94-2.76-7.84-2.81c-5.2-0.07-10.4-0.03-15.6-0.03c-0.19,0-0.38,0.02-0.59,0.03
		C233.36,216.64,233.36,223.13,233.36,229.71z M233.37,202.88c0.2,0.01,0.38,0.04,0.55,0.04c4.34,0,8.68,0.04,13.01-0.02
		c1.27-0.02,2.56-0.16,3.79-0.48c2.23-0.58,4.03-1.83,5.09-3.96c0.73-1.45,0.87-3.03,0.76-4.62c-0.17-2.63-1.34-4.69-3.67-6.01
		c-1.88-1.07-3.92-1.42-6.05-1.42c-4.28,0-8.56,0-12.83,0c-0.21,0-0.42,0-0.65,0C233.37,191.95,233.37,197.4,233.37,202.88z"/>
	<path d="M82.9,211.38c0,6.15,0,12.2,0,18.33c0.29,0,0.54,0,0.79,0c9.5,0,19,0,28.5,0c1.51,0,2.75,0.5,3.49,1.89
		c1.15,2.16-0.21,4.8-2.63,5.13c-0.36,0.05-0.72,0.09-1.07,0.09c-10.88,0-21.76,0-32.64,0.01c-1.7,0-3.02-0.63-3.76-2.16
		c-0.29-0.6-0.4-1.35-0.4-2.03c-0.02-16.38-0.02-32.76-0.01-49.14c0-2.18,1.12-3.68,3.02-4.11c0.21-0.05,0.43-0.07,0.65-0.07
		c11.2,0,22.4-0.01,33.6,0c2.57,0,4.24,2.42,3.41,4.84c-0.43,1.26-1.67,2.16-3.12,2.25c-0.32,0.02-0.64,0.01-0.96,0.01
		c-9.34,0-18.68,0-28.02,0c-0.26,0-0.52,0-0.83,0c0,5.94,0,11.84,0,17.83c0.27,0,0.52,0,0.77,0c6.62,0,13.24,0,19.86,0
		c1.11,0,2.14,0.21,3,0.98c1.07,0.97,1.39,2.15,1.04,3.52c-0.36,1.44-1.36,2.21-2.76,2.51c-0.44,0.1-0.91,0.12-1.37,0.12
		c-6.58,0.01-13.16,0-19.74,0C83.47,211.38,83.21,211.38,82.9,211.38z"/>
	<path d="M286.53,186.42c0,5.97,0,11.85,0,17.83c0.26,0,0.52,0,0.77,0c6.64,0,13.28,0,19.92,0c1.16,0,2.22,0.24,3.08,1.08
		c1.01,0.99,1.29,2.18,0.91,3.52c-0.39,1.37-1.36,2.12-2.71,2.42c-0.44,0.1-0.91,0.12-1.37,0.12c-6.6,0.01-13.2,0-19.8,0
		c-0.24,0-0.48,0-0.77,0c0,6.1,0,12.17,0,18.33c0.23,0,0.48,0,0.74,0c9.48,0,18.96,0,28.44,0c1.26,0,2.38,0.3,3.2,1.32
		c0.89,1.1,0.95,2.36,0.48,3.62c-0.45,1.18-1.35,1.91-2.64,2.08c-0.36,0.05-0.72,0.1-1.07,0.1c-10.94,0.01-21.88,0-32.82,0.01
		c-1.67,0-2.96-0.67-3.69-2.18c-0.27-0.55-0.38-1.23-0.38-1.85c-0.02-16.48-0.02-32.96-0.01-49.44c0-2.48,1.59-4.04,4.06-4.04
		c10.98,0,21.96,0,32.94,0c1.84,0,3.21,0.91,3.71,2.46c0.74,2.26-0.74,4.46-3.11,4.63c-0.34,0.02-0.68,0.02-1.02,0.02
		c-9.34,0-18.68,0-28.02,0C287.1,186.42,286.84,186.42,286.53,186.42z"/>
	<path d="M53.95,213.65c0.14,0.21,0.25,0.39,0.37,0.57c3.84,5.53,7.67,11.08,11.54,16.59c1.18,1.67,0.89,3.63-0.05,4.78
		c-1.61,1.94-4.4,1.83-5.84-0.24c-5.03-7.24-10.03-14.5-15.11-21.71c-1.35-1.92-0.83-3.75,0.33-5.01c0.77-0.84,1.84-0.98,2.9-1.1
		c4.32-0.48,7.91-3.64,8.91-7.84c1.37-5.78-2.12-11.4-7.93-12.72c-0.77-0.18-1.58-0.26-2.38-0.26c-3.36-0.03-6.72-0.01-10.08-0.01
		c-0.12,0-0.24,0.02-0.45,0.04c0,0.26,0,0.51,0,0.76c0,15.12-0.01,30.24,0.01,45.36c0,1.32-0.42,2.36-1.42,3.21
		c-1.13,0.95-2.42,1.09-3.7,0.53c-1.28-0.56-2.17-1.55-2.25-3.06c-0.01-0.26-0.02-0.52-0.02-0.78c0-16.44,0.01-32.88-0.02-49.32
		c0-1.68,0.64-2.9,2.07-3.7c0.45-0.25,1.02-0.4,1.54-0.4c4.96-0.03,9.92-0.06,14.88-0.01c8.8,0.09,15.82,6.74,17.16,14.51
		c1.12,6.48-0.7,12.09-5.6,16.61c-1.34,1.23-2.82,2.22-4.46,2.99C54.22,213.49,54.1,213.56,53.95,213.65z"/>
	<path d="M192.68,191.74c-1.02,2.5-2.02,4.93-3.02,7.37c-4.78,11.68-9.55,23.36-14.33,35.04c-0.99,2.42-3.43,3.37-5.59,2.19
		c-1.71-0.93-2.36-3.03-1.53-5.07c1.36-3.31,2.75-6.6,4.14-9.89c5.48-13.06,10.95-26.12,16.45-39.17c0.31-0.74,0.77-1.46,1.33-2.03
		c1.36-1.38,4.67-1.41,5.86,1.34c1.33,3.08,2.61,6.18,3.91,9.28c5.61,13.39,11.22,26.78,16.83,40.18c0.5,1.19,0.81,2.39,0.19,3.64
		c-0.73,1.47-1.95,2.2-3.57,2.19c-1.63-0.01-2.84-0.76-3.46-2.3c-1.33-3.28-2.64-6.56-3.96-9.84c-4.34-10.8-8.67-21.6-13.01-32.39
		C192.86,192.11,192.78,191.96,192.68,191.74z"/>
	<path d="M134.23,229.11c0.34,0,0.6,0,0.86,0c8.52,0,17.04,0,25.56,0c1.96,0,3.4,1.02,3.9,2.75c0.71,2.46-0.91,4.76-3.51,4.95
		c-0.18,0.01-0.36,0.01-0.54,0.01c-9.92,0-19.84-0.01-29.75,0.01c-1.66,0-3-0.57-3.74-2.1c-0.28-0.57-0.38-1.27-0.38-1.91
		c-0.03-5.34-0.02-10.68-0.02-16.02c0-11.14,0-22.28,0-33.41c0-2.03,1.07-3.5,2.89-3.98c2.28-0.61,4.62,1.12,4.72,3.48
		c0.01,0.34,0.02,0.68,0.02,1.02c0,14.76,0,29.51,0,44.27C134.23,228.46,134.23,228.73,134.23,229.11z"/>
	<path d="M337.87,229.11c0.32,0,0.58,0,0.83,0c8.52,0,17.04,0,25.56,0c2.14,0,3.66,1.21,4,3.14c0.41,2.39-1.13,4.36-3.58,4.56
		c-0.16,0.01-0.32,0.01-0.48,0.01c-9.96,0-19.92,0-29.88,0c-1.64,0-2.93-0.59-3.7-2.08c-0.2-0.39-0.27-0.87-0.35-1.31
		c-0.05-0.27-0.03-0.56-0.03-0.84c0-16.34,0-32.68-0.01-49.01c0-1.7,0.57-3.04,2.1-3.88c2.29-1.25,5.36,0.44,5.52,3.05
		c0.02,0.3,0.01,0.6,0.01,0.9c0,14.84,0,29.68,0,44.51C337.87,228.45,337.87,228.73,337.87,229.11z"/>
</g>
</svg>
